HIERARCHY
ROOT Hips
{
	OFFSET 0.000000 0.000000 0.000000
	CHANNELS 6 Xposition Yposition Zposition Xrotation Yrotation Zrotation
	JOINT LeftUpLeg_virtual
	{
		OFFSET 0.000000 0.000000 0.000000
		CHANNELS 3 Xrotation Yrotation Zrotation
		JOINT LeftUpLeg
		{
			OFFSET 10.205400 -3.823500 0.155100
			CHANNELS 3 Xrotation Yrotation Zrotation
			JOINT LeftLeg
			{
				OFFSET 0.708757 -12.982077 0.567790
				CHANNELS 3 Xrotation Yrotation Zrotation
				JOINT LeftFoot
				{
					OFFSET -0.708756 -10.717838 -2.184338
					CHANNELS 3 Xrotation Yrotation Zrotation
					JOINT LeftToeBase
					{
						OFFSET 0.108149 -7.191104 7.560241
						CHANNELS 3 Xrotation Yrotation Zrotation
						JOINT LeftToe_End
						{
							OFFSET 0.070230 0.081724 4.490308
							CHANNELS 3 Xrotation Yrotation Zrotation
							End Site
							{
								OFFSET 0 0 0
							}
						}
					}
				}
			}
		}
	}
	JOINT RightUpLeg_virtual
	{
		OFFSET 0.000000 0.000000 0.000000
		CHANNELS 3 Xrotation Yrotation Zrotation
		JOINT RightUpLeg
		{
			OFFSET -10.205400 -3.823500 0.005500
			CHANNELS 3 Xrotation Yrotation Zrotation
			JOINT RightLeg
			{
				OFFSET -0.708756 -12.982134 0.610632
				CHANNELS 3 Xrotation Yrotation Zrotation
				JOINT RightFoot
				{
					OFFSET 0.708754 -10.717769 -1.945823
					CHANNELS 3 Xrotation Yrotation Zrotation
					JOINT RightToeBase
					{
						OFFSET -0.108140 -7.191069 7.372968
						CHANNELS 3 Xrotation Yrotation Zrotation
						JOINT RightToe_End
						{
							OFFSET -0.070227 0.081735 4.479403
							CHANNELS 3 Xrotation Yrotation Zrotation
							End Site
							{
								OFFSET 0 0 0
							}
						}
					}
				}
			}
		}
	}
	JOINT Spine_virtual
	{
		OFFSET 0.000000 0.000000 0.000000
		CHANNELS 3 Xrotation Yrotation Zrotation
		JOINT Spine
		{
			OFFSET 0.000000 6.876099 0.125700
			CHANNELS 3 Xrotation Yrotation Zrotation
			JOINT Spine1
			{
				OFFSET 0.000000 5.730043 0.104720
				CHANNELS 3 Xrotation Yrotation Zrotation
				JOINT Spine1_split
				{
					OFFSET 0.000000 5.730043 0.104720
					CHANNELS 3 Xrotation Yrotation Zrotation
					JOINT Spine2
					{
						OFFSET 0.000000 5.730043 0.104720
						CHANNELS 3 Xrotation Yrotation Zrotation
						JOINT Neck_virtual
						{
							OFFSET 0.000000 0.000000 0.000000
							CHANNELS 3 Xrotation Yrotation Zrotation
							JOINT Neck
							{
								OFFSET 0.000000 10.314075 0.188496
								CHANNELS 3 Xrotation Yrotation Zrotation
								JOINT Head
								{
									OFFSET 0.000000 7.643700 -2.377400
									CHANNELS 3 Xrotation Yrotation Zrotation
									JOINT HeadTop_End
									{
										OFFSET 0.000000 43.788605 -13.619600
										CHANNELS 3 Xrotation Yrotation Zrotation
										End Site
										{
											OFFSET 0 0 0
										}
									}
								}
							}
						}
						JOINT LeftShoulder_virtual
						{
							OFFSET 0.000000 0.000000 0.000000
							CHANNELS 3 Xrotation Yrotation Zrotation
							JOINT LeftShoulder
							{
								OFFSET 2.196100 4.412489 0.087492
								CHANNELS 3 Xrotation Yrotation Zrotation
								JOINT LeftShoulder_split
								{
									OFFSET 2.196100 4.412489 0.087492
									CHANNELS 3 Xrotation Yrotation Zrotation
									JOINT LeftArm
									{
										OFFSET 8.771219 -2.981674 -0.026999
										CHANNELS 3 Xrotation Yrotation Zrotation
										JOINT LeftForeArm
										{
											OFFSET 8.512804 0.000000 -0.000000
											CHANNELS 3 Xrotation Yrotation Zrotation
											JOINT LeftHand
											{
												OFFSET 18.484802 0.000000 -0.000000
												CHANNELS 3 Xrotation Yrotation Zrotation
												End Site
												{
													OFFSET 0 0 0
												}
											}
										}
									}
								}
							}
						}
						JOINT RightShoulder_virtual
						{
							OFFSET 0.000000 0.000000 0.000000
							CHANNELS 3 Xrotation Yrotation Zrotation
							JOINT RightShoulder
							{
								OFFSET -2.196100 4.412496 0.070690
								CHANNELS 3 Xrotation Yrotation Zrotation
								JOINT RightShoulder_split
								{
									OFFSET -2.196100 4.412496 0.070690
									CHANNELS 3 Xrotation Yrotation Zrotation
									JOINT RightArm
									{
										OFFSET -8.771282 -2.981682 -0.094208
										CHANNELS 3 Xrotation Yrotation Zrotation
										JOINT RightForeArm
										{
											OFFSET -8.494598 0.000000 0.000000
											CHANNELS 3 Xrotation Yrotation Zrotation
											JOINT RightHand
											{
												OFFSET -18.483803 0.000000 0.000001
												CHANNELS 3 Xrotation Yrotation Zrotation
												End Site
												{
													OFFSET 0 0 0
												}
											}
										}
									}
								}
							}
						}
					}
				}
			}
		}
	}
}
MOTION
Frames: 9
Frame Time: 0.03333333
-2.392682 32.461174 -4.039736 0.000000 0.000000 0.000000 -2.960499 -1.354976 1.989297 -22.093849 5.415300 5.424634 37.814328 5.985834 -2.350401 -11.923664 1.307681 -3.648835 -0.002832 -0.000004 0.000001 0.000000 0.000000 0.000000 -2.960499 -1.354976 1.989297 -1.862466 -17.095432 -15.899483 34.104186 1.762502 -5.349094 -28.419510 -4.772205 17.376029 -6.790707 0.000041 0.000007 0.000000 0.000000 0.000000 -2.960499 -1.354976 1.989297 8.845774 2.823745 -4.954399 1.276167 0.577129 -0.622581 0.000000 0.000000 0.000000 0.000000 0.000000 0.000000 1.278387 0.567047 -0.629523 -6.061336 0.449845 0.950595 5.338945 4.042159 -5.183568 0.000000 0.000000 0.000000 1.278387 0.567047 -0.629523 -0.302506 5.872715 -1.999056 0.000000 0.000000 0.000000 -14.720690 -10.177259 -69.280999 -0.000004 -33.970226 0.000017 0.000000 0.000000 0.000000 1.278387 0.567047 -0.629523 4.545758 12.839005 -7.835339 0.000000 0.000000 0.000000 -1.611810 -3.214994 72.442523 0.000017 36.829712 -0.000015 0.000000 0.000000 0.000000 
-2.417691 32.468052 -4.109827 0.000000 0.000000 0.000000 -2.755671 -1.495474 1.948080 -22.294248 5.437430 5.567715 37.872098 6.519977 -2.440563 -11.913375 1.357077 -3.760506 -0.002936 -0.000004 0.000002 0.000000 0.000000 0.000000 -2.755671 -1.495474 1.948080 -2.333043 -16.881610 -15.728776 34.207527 1.985947 -5.262210 -28.456880 -4.939384 17.062098 -6.535492 0.000042 0.000004 0.000000 0.000000 0.000000 -2.755671 -1.495474 1.948080 9.098556 2.593060 -5.155388 1.319394 0.540907 -0.647528 0.000000 0.000000 0.000000 0.000000 0.000000 0.000000 1.321268 0.530790 -0.654146 -6.190337 0.319003 1.390178 4.811083 4.139859 -4.959373 0.000000 0.000000 0.000000 1.321268 0.530790 -0.654146 -0.303275 5.756982 -1.556015 0.000000 0.000000 0.000000 -15.042484 -11.360655 -68.812633 0.000004 -34.989212 0.000018 0.000000 0.000000 0.000000 1.321268 0.530790 -0.654146 4.474241 12.585511 -7.073513 0.000000 0.000000 0.000000 -2.036078 -3.701633 71.662242 -0.000002 37.330180 -0.000005 0.000000 0.000000 0.000000 
-2.450020 32.483582 -4.202625 0.000000 0.000000 0.000000 -2.451611 -1.590973 1.860559 -22.674606 5.300537 5.693373 37.946868 7.306973 -2.416487 -11.814494 1.376799 -4.018970 -0.003249 -0.000001 0.000001 0.000000 0.000000 0.000000 -2.451611 -1.590973 1.860559 -2.911614 -16.669835 -15.576096 34.298205 2.012752 -5.098131 -28.355228 -4.940564 16.918857 -6.425294 0.000043 0.000008 0.000000 0.000000 0.000000 -2.451611 -1.590973 1.860559 9.413485 2.182750 -5.162229 1.383672 0.469616 -0.649914 0.000000 0.000000 0.000000 0.000000 0.000000 0.000000 1.385196 0.459451 -0.655662 -6.249582 0.254371 1.644643 4.154950 4.254124 -4.827952 0.000000 0.000000 0.000000 1.385196 0.459451 -0.655662 -0.286549 5.514385 -1.044855 0.000000 0.000000 0.000000 -15.270257 -12.043484 -68.677648 0.000002 -35.845389 -0.000002 0.000000 0.000000 0.000000 1.385196 0.459451 -0.655662 4.475553 12.587494 -7.070211 0.000000 0.000000 0.000000 -2.082186 -4.351397 71.670309 0.000000 37.724672 -0.000005 0.000000 0.000000 0.000000 
-2.469416 32.495926 -4.314405 0.000000 0.000000 0.000000 -2.244439 -1.920321 1.715489 -22.940551 5.260336 5.972115 38.123230 7.717379 -2.518089 -11.833970 1.871632 -4.146619 -0.003745 0.000002 -0.000001 0.000000 0.000000 0.000000 -2.244439 -1.920321 1.715489 -3.569266 -16.326304 -15.391884 34.450723 1.986706 -5.083493 -28.174486 -4.801303 16.933468 -6.265088 0.000024 0.000001 0.000000 0.000000 0.000000 -2.244439 -1.920321 1.715489 9.884866 1.790581 -5.020998 1.482459 0.400477 -0.630391 0.000000 0.000000 0.000000 0.000000 0.000000 0.000000 1.483808 0.390016 -0.635221 -6.264072 0.249870 1.693564 3.376577 4.323836 -4.770965 0.000000 0.000000 0.000000 1.483808 0.390016 -0.635221 -0.254138 5.236798 -0.708907 0.000000 0.000000 0.000000 -15.383101 -12.369731 -68.553270 0.000002 -36.505380 -0.000004 0.000000 0.000000 0.000000 1.483808 0.390016 -0.635221 4.504592 12.705220 -7.769227 0.000000 0.000000 0.000000 -1.737133 -4.848030 72.160621 -0.000000 37.618954 0.000013 0.000000 0.000000 0.000000 
-2.471658 32.503128 -4.441059 0.000000 0.000000 0.000000 -2.028841 -2.738482 1.497242 -23.130280 5.502737 6.521004 38.466942 7.577228 -2.846551 -12.125552 2.970707 -4.052841 -0.004406 0.000004 -0.000001 0.000000 0.000000 0.000000 -2.028841 -2.738482 1.497242 -4.608937 -15.692891 -15.238137 34.752040 1.923523 -5.113993 -27.898989 -4.317854 17.047198 -6.009650 0.000037 0.000003 0.000000 0.000000 0.000000 -2.028841 -2.738482 1.497242 10.524392 1.677561 -4.861583 1.610501 0.385030 -0.593487 0.000000 0.000000 0.000000 0.000000 0.000000 0.000000 1.611991 0.374073 -0.598060 -6.310574 0.267154 1.659577 2.485992 4.364502 -4.725202 0.000000 0.000000 0.000000 1.611991 0.374073 -0.598060 -0.222230 5.022175 -0.614881 0.000000 0.000000 0.000000 -15.519062 -12.613525 -68.143295 0.000001 -36.766505 0.000009 0.000000 0.000000 0.000000 1.611991 0.374073 -0.598060 4.553069 12.895406 -8.701366 0.000000 0.000000 0.000000 -1.108342 -5.258561 72.672502 -0.000028 37.493463 0.000018 0.000000 0.000000 0.000000 
-2.465972 32.500763 -4.582958 0.000000 0.000000 0.000000 -1.598075 -4.221950 1.145098 -23.518105 5.871161 7.394934 39.298146 7.312221 -3.246952 -13.002696 4.406803 -4.036923 -0.005183 0.000005 0.000003 0.000000 0.000000 0.000000 -1.598075 -4.221950 1.145098 -6.267461 -14.524833 -14.884072 35.157453 1.799947 -5.243176 -27.468417 -3.582619 17.300987 -5.583341 0.000043 0.000004 0.000000 0.000000 0.000000 -1.598075 -4.221950 1.145098 11.288523 1.835095 -4.748814 1.758300 0.424432 -0.544583 0.000000 0.000000 0.000000 0.000000 0.000000 0.000000 1.760174 0.412954 -0.549581 -6.443736 0.293744 1.608578 1.447805 4.417943 -4.637322 0.000000 0.000000 0.000000 1.760174 0.412954 -0.549581 -0.207069 4.932129 -0.600413 0.000000 0.000000 0.000000 -15.858789 -12.760071 -67.505601 0.000010 -36.378824 0.000023 0.000000 0.000000 0.000000 1.760174 0.412954 -0.549581 4.639573 13.196346 -9.404003 0.000000 0.000000 0.000000 -0.327239 -6.046625 72.910480 0.000000 38.032539 -0.000009 0.000000 0.000000 0.000000 
-2.453251 32.478676 -4.763754 0.000000 0.000000 0.000000 -0.950934 -5.864204 0.908362 -24.226497 6.147557 8.272594 40.032750 7.036829 -3.676315 -13.563583 5.646973 -4.064400 -0.006113 -0.000000 0.000001 0.000000 0.000000 0.000000 -0.950934 -5.864204 0.908362 -8.817254 -13.095439 -14.761118 36.415891 1.724104 -5.364942 -27.068436 -2.745364 17.757734 -5.024207 0.000031 0.000008 0.000000 0.000000 0.000000 -0.950934 -5.864204 0.908362 12.151913 1.979000 -4.713513 1.922357 0.467120 -0.508028 0.000000 0.000000 0.000000 0.000000 0.000000 0.000000 1.924562 0.455095 -0.513541 -6.661890 0.307482 1.589844 0.187779 4.452002 -4.434935 0.000000 0.000000 0.000000 1.924562 0.455095 -0.513541 -0.221032 4.956267 -0.416218 0.000000 0.000000 0.000000 -16.298049 -12.615794 -66.705847 -0.000007 -35.392592 -0.000011 0.000000 0.000000 0.000000 1.924562 0.455095 -0.513541 4.685701 13.352670 -9.832341 0.000000 0.000000 0.000000 0.363063 -7.059795 72.831974 0.000004 38.650664 -0.000019 0.000000 0.000000 0.000000 
-2.432815 32.454025 -4.983215 0.000000 0.000000 0.000000 -0.209367 -7.306996 0.795927 -25.180724 6.252314 9.042082 40.545325 6.835635 -4.067741 -13.733814 6.446749 -4.115084 -0.007126 0.000005 -0.000004 0.000000 0.000000 0.000000 -0.209367 -7.306996 0.795927 -11.691540 -11.986194 -15.099636 37.933177 1.579424 -5.064221 -26.618501 -1.546278 18.455171 -4.638332 0.000038 -0.000001 0.000000 0.000000 0.000000 -0.209367 -7.306996 0.795927 13.102249 1.910773 -4.760086 2.100107 0.474713 -0.500218 0.000000 0.000000 0.000000 0.000000 0.000000 0.000000 2.102384 0.461929 -0.505845 -6.932263 0.292119 1.677072 -1.228003 4.510151 -4.153365 0.000000 0.000000 0.000000 2.102384 0.461929 -0.505845 -0.254181 5.026730 -0.018874 0.000000 0.000000 0.000000 -16.422741 -12.046021 -65.559823 -0.000010 -34.130558 -0.000007 0.000000 0.000000 0.000000 2.102384 0.461929 -0.505845 4.592572 13.075972 -10.424776 0.000000 0.000000 0.000000 0.824649 -7.601845 72.673035 0.000010 38.303335 -0.000001 0.000000 0.000000 0.000000 
-2.407655 32.434704 -5.223379 0.000000 0.000000 0.000000 0.648735 -8.848414 0.646417 -26.281706 6.453789 10.073964 41.198410 6.556475 -4.683889 -14.109526 7.275489 -4.026312 -0.008187 -0.000012 0.000001 0.000000 0.000000 0.000000 0.648735 -8.848414 0.646417 -14.693492 -10.996566 -15.477315 39.270487 1.454681 -4.497350 -25.938600 -0.274245 19.531517 -4.241486 0.000033 0.000001 0.000000 0.000000 0.000000 0.648735 -8.848414 0.646417 14.165695 1.644791 -4.793651 2.300912 0.446762 -0.504656 0.000000 0.000000 0.000000 0.000000 0.000000 0.000000 2.303063 0.432771 -0.510029 -7.212257 0.293376 1.753969 -2.644535 4.624424 -3.862387 0.000000 0.000000 0.000000 2.303063 0.432771 -0.510029 -0.271134 5.002137 0.378210 0.000000 0.000000 0.000000 -15.944698 -10.925885 -63.893858 -0.000005 -32.764909 0.000019 0.000000 0.000000 0.000000 2.303063 0.432771 -0.510029 4.469882 12.754785 -11.503421 0.000000 0.000000 0.000000 1.518451 -7.978319 72.738953 0.000020 37.465391 -0.000011 0.000000 0.000000 0.000000 
